<?xml version="1.0" encoding="utf-8"?>
<!-- Generator: Adobe Illustrator 23.0.1, SVG Export Plug-In . SVG Version: 6.00 Build 0)  -->
<svg version="1.1" id="Ebene_1" xmlns="http://www.w3.org/2000/svg" xmlns:xlink="http://www.w3.org/1999/xlink" x="0px" y="0px"
	 viewBox="0 0 35.71 34.99" style="enable-background:new 0 0 35.71 34.99;" xml:space="preserve">
<style type="text/css">
	.st0{fill:#3F8BCA;}
</style>
<path class="st0" d="M17.78,2.31c-8.46,0-15.32,6.86-15.32,15.32c0,8.46,6.86,15.32,15.32,15.32c8.46,0,15.32-6.86,15.32-15.32
	C33.1,9.17,26.24,2.31,17.78,2.31z M20.76,12.38l5.64-3.26c0.31-0.18,0.71-0.07,0.88,0.24l0.25,0.43c0.18,0.31,0.07,0.71-0.24,0.88
	l-5.64,3.26c-0.31,0.18-0.71,0.07-0.88-0.24l-0.25-0.43C20.35,12.95,20.45,12.56,20.76,12.38z M9.99,22.42h-2.4
	c-0.89,0-1.6-0.71-1.6-1.6v-6.4c0-0.88,0.71-1.6,1.6-1.6h2.4V22.42z M18.79,25.63c0,0.88-0.72,1.6-1.6,1.6l-5.6-3.73V11.76l5.6-3.73
	c0.89,0,1.6,0.72,1.6,1.6V25.63z M27.53,24.16l-0.25,0.43C27.1,24.9,26.71,25,26.4,24.83l-5.64-3.26c-0.31-0.18-0.41-0.58-0.24-0.88
	l0.25-0.43c0.18-0.31,0.58-0.41,0.88-0.24l5.64,3.26C27.6,23.45,27.71,23.85,27.53,24.16z M28.28,17.92h-6.51
	c-0.36,0-0.65-0.29-0.65-0.65v-0.5c0-0.36,0.29-0.65,0.65-0.65h6.51c0.36,0,0.65,0.29,0.65,0.65v0.5
	C28.93,17.63,28.64,17.92,28.28,17.92z"/>
</svg>
