<?xml version="1.0" encoding="utf-8"?>
<!-- Generator: Adobe Illustrator 23.0.1, SVG Export Plug-In . SVG Version: 6.00 Build 0)  -->
<svg version="1.1" id="Ebene_1" xmlns="http://www.w3.org/2000/svg" xmlns:xlink="http://www.w3.org/1999/xlink" x="0px" y="0px"
	 viewBox="0 0 650 650" style="enable-background:new 0 0 650 650;" xml:space="preserve">
<style type="text/css">
	.st0{fill:#E6E6E6;}
</style>
<g>
	<path class="st0" d="M-0.5-0.5v650h650v-650H-0.5z M520.73,631.97h-7.17v-35.57h7.17V631.97z M534.16,631.97h-7.17v-43h7.17V631.97
		z M548.04,631.97h-7.17v-56.49h7.17V631.97z M562.39,631.97h-7.17v-35.57h7.17V631.97z M604.5,631.97v-46.49h-8.33v46.49h-12.73
		v-46.49h12.72c-0.25-31.88-26.05-57.65-57.84-57.65s-57.6,25.77-57.84,57.65h12.72v46.49h-12.73v-46.49h-8.33v46.49
		c-12.78,0-23.14-10.41-23.14-23.25s10.36-23.25,23.14-23.25c0-36.72,29.63-66.48,66.18-66.48s66.18,29.77,66.18,66.48
		c12.78,0,23.14,10.41,23.14,23.25S617.28,631.97,604.5,631.97z"/>
</g>
</svg>
